<?xml version="1.0" encoding="UTF-8"?>
<svg version="1.1" xmlns="http://www.w3.org/2000/svg" width="2000" height="532">
<path d="M0 0 C605.88 0 1211.76 0 1836 0 C1836 19.47 1836 38.94 1836 59 C1800.81460598 59.00342989 1800.81460598 59.00342989 1787.97699648 59.0046621 C1787.13588996 59.00474283 1786.29478343 59.00482357 1785.42818883 59.00490675 C1746.1416604 59.00867482 1706.85513196 59.01230094 1667.56860352 59.01586914 C1666.47003014 59.01596894 1665.37145677 59.01606874 1664.2395933 59.01617156 C1546.56393938 59.02685542 1428.88828546 59.03607943 1311.21263123 59.04234314 C1308.5997723 59.04248259 1305.98691338 59.04262204 1303.37405446 59.04276149 C1249.21761177 59.04564751 1195.06116907 59.04833887 1140.90472636 59.05078693 C1138.85201736 59.05087972 1136.79930835 59.05097252 1134.74659935 59.05106533 C1134.0686256 59.05109598 1133.39065185 59.05112663 1132.69213344 59.05115821 C1107.19900228 59.05231126 1081.70587112 59.05350863 1056.21273996 59.05473244 C1053.44283614 59.05486537 1050.67293231 59.05499779 1047.90302849 59.05512976 C982.50367087 59.05824591 917.10431343 59.06215981 851.70495605 59.06866455 C851.01634348 59.06873299 850.3277309 59.06880142 849.61825128 59.06887193 C826.71812115 59.07114901 803.81799104 59.0735034 780.91786092 59.07586844 C760.22690801 59.07800509 739.5359551 59.08011399 718.84500217 59.08213139 C718.16531871 59.08219767 717.48563524 59.08226395 716.7853553 59.08233224 C674.23376228 59.08647454 631.68216932 59.08941404 589.13057613 59.09113979 C587.16004906 59.0912201 587.16004906 59.0912201 585.14971336 59.09130202 C556.31635117 59.09246758 527.48298899 59.09336253 498.64962679 59.09400098 C487.04937112 59.09426262 475.44911545 59.09456324 463.84885979 59.09487724 C461.94442235 59.09492738 461.94442235 59.09492738 460.00151142 59.09497854 C419.04325951 59.09607632 378.08500868 59.1003519 337.12675721 59.10628221 C295.89325306 59.1122379 254.65974996 59.11510175 213.42624537 59.11362399 C207.73741574 59.11342089 202.0485861 59.11325351 196.35975647 59.11310768 C195.2445141 59.1130778 194.12927172 59.11304792 192.98023412 59.11301713 C175.27029673 59.11263543 157.56036155 59.11563017 139.85042476 59.12000986 C122.4662679 59.12424039 105.08211394 59.12495081 87.69795681 59.12183181 C77.48646451 59.1201081 67.27498135 59.12116964 57.0634901 59.126217 C50.3001325 59.12929104 43.53678149 59.12880555 36.7734241 59.12530107 C32.92758859 59.12341175 29.08177098 59.12314804 25.23593678 59.12723524 C21.12070099 59.13157521 17.00550817 59.12832191 12.8902722 59.1241985 C11.07944086 59.12796181 11.07944086 59.12796181 9.23202707 59.13180115 C7.60839903 59.12827181 7.60839903 59.12827181 5.95197043 59.12467116 C5.01241784 59.12473517 4.07286524 59.12479918 3.10484136 59.12486512 C1 59 1 59 0 58 C0 38.86 0 19.72 0 0 Z " fill="#8A96F6" transform="translate(29,469)"/>
<path d="M0 0 C21.12 0 42.24 0 64 0 C65.22259024 3.66777071 66.26856612 6.84264887 67.01134682 10.55057621 C67.1860153 11.41287092 67.36068378 12.27516564 67.54064524 13.16359049 C67.72547603 14.09598518 67.91030681 15.02837986 68.10073853 15.98902893 C68.30254144 16.99109798 68.50434436 17.99316703 68.71226251 19.0256018 C69.38687015 22.38035775 70.05597957 25.73618619 70.72509766 29.09204102 C71.20782884 31.49863931 71.69088437 33.90517257 72.17424011 36.31164551 C73.3494156 42.16734348 74.52096578 48.02375586 75.69069459 53.88054342 C76.64139377 58.64034257 77.59352455 63.39985321 78.54667282 68.15916252 C78.68239454 68.83686947 78.81811626 69.51457642 78.95795076 70.21281995 C79.23367852 71.58960752 79.50940846 72.96639466 79.78514056 74.34318136 C82.36938054 87.24780982 84.9487584 100.1534065 87.5265712 113.05932014 C89.88528834 124.86760935 92.24964762 136.67476034 94.61673601 148.48137403 C97.04774195 160.60701707 99.47520769 172.73336362 101.89872587 184.86050552 C102.17279809 186.23188917 102.44687568 187.60327175 102.72095871 188.97465324 C102.85581014 189.64938677 102.99066157 190.3241203 103.1295994 191.0193003 C104.08006974 195.77381666 105.03284157 200.52786845 105.9865303 205.28174019 C107.26982694 211.6788876 108.54807907 218.07702862 109.82291603 224.47586823 C110.29210396 226.82683022 110.7629389 229.1774642 111.23552132 231.5277462 C111.87919869 234.73028191 112.51696928 237.93393833 113.15322876 241.13795471 C113.34252099 242.07258012 113.53181321 243.00720553 113.72684157 243.97015291 C113.89629455 244.82983988 114.06574754 245.68952685 114.24033546 246.57526493 C114.38810169 247.31436574 114.53586791 248.05346655 114.6881119 248.81496435 C115.03345229 251.23436112 115.05211808 253.55929846 115 256 C116.32 255.67 117.64 255.34 119 255 C119.27163971 253.78166473 119.54327942 252.56332947 119.82315063 251.30807495 C123.42284426 235.1635108 127.02359883 219.01918333 130.625 202.875 C130.77258145 202.21342345 130.9201629 201.5518469 131.07221651 200.87022257 C141.59005138 153.7213684 152.13124648 106.57776683 162.6875 59.4375 C162.8552572 58.68835422 163.02301439 57.93920843 163.19585514 57.16736126 C164.36376538 51.95189716 165.53171776 46.7364425 166.69970703 41.52099609 C166.84609674 40.86731843 166.99248645 40.21364077 167.14331222 39.5401547 C170.09501894 26.35998607 173.04759507 13.18001227 176 0 C201.41 0 226.82 0 253 0 C257.5947001 18.37880039 257.5947001 18.37880039 259.49310303 26.99743652 C259.712949 27.98707633 259.93279498 28.97671615 260.15930295 29.99634504 C260.88135111 33.24906854 261.60035828 36.50245593 262.31933594 39.75585938 C262.84190154 42.11291034 263.36465775 44.46991906 263.8875885 46.82688904 C265.15064432 52.52203494 266.41173722 58.21761281 267.67192927 63.91339302 C269.14047066 70.55034976 270.61148649 77.18675733 272.08263746 83.82313603 C274.70538079 95.65466608 277.32620666 107.48661998 279.94580078 119.31884766 C282.48807615 130.80182093 285.03127066 142.28459001 287.57568359 153.76708984 C287.73294347 154.47677821 287.89020334 155.18646658 288.05222866 155.91766065 C288.84128701 159.47852683 289.63036325 163.03938904 290.41944838 166.60024929 C296.94907063 196.06621918 303.47553771 225.53288711 310 255 C311.32 255.33 312.64 255.66 314 256 C314.0956575 255.30641891 314.191315 254.61283783 314.28987122 253.89823914 C315.85292542 243.14747998 318.03330245 232.53686408 320.19921875 221.89453125 C320.62717943 219.78008943 321.05486015 217.66559094 321.48228455 215.55104065 C322.63939911 209.83022359 323.8001322 204.11014616 324.96149445 198.39019012 C326.18338854 192.36880586 327.40191405 186.34674017 328.62060547 180.32470703 C330.1533657 172.75156171 331.68637755 165.17846785 333.22076416 157.60565186 C336.83564131 139.7635426 340.43935895 121.91920826 344.03547025 104.07330775 C344.69466456 100.80211619 345.35398843 97.53095075 346.01329041 94.25978088 C348.05015675 84.1533018 350.08685323 74.04678856 352.12265015 63.94009399 C353.30993637 58.04611096 354.49804404 52.15229403 355.68670845 46.25858879 C356.12055445 44.10672879 356.55411441 41.9548111 356.98734856 39.80282784 C358.31663738 33.20018835 359.65374328 26.59920043 361 20 C361.1885833 19.07228035 361.3771666 18.1445607 361.57146454 17.18872833 C362.11940081 14.50073785 362.67279024 11.81393212 363.22802734 9.12744141 C363.39259241 8.31764517 363.55715748 7.50784893 363.72670937 6.67351341 C364.88508396 1.11491604 364.88508396 1.11491604 366 0 C367.90243762 -0.09391296 369.80838459 -0.11743658 371.71313477 -0.11352539 C372.9343251 -0.11344986 374.15551544 -0.11337433 375.41371155 -0.11329651 C376.75627686 -0.10818911 378.09884175 -0.10297311 379.44140625 -0.09765625 C380.80761158 -0.09579199 382.17381757 -0.09436813 383.5400238 -0.09336853 C387.14201695 -0.08954394 390.74397 -0.07971417 394.34594727 -0.06866455 C398.01903745 -0.05844916 401.69213409 -0.05387064 405.36523438 -0.04882812 C412.57684123 -0.03809184 419.788415 -0.02101614 427 0 C426.39205111 6.600256 425.24337014 12.84815643 423.68457031 19.28491211 C423.32902699 20.78169731 423.32902699 20.78169731 422.96630096 22.30872059 C422.17534753 25.63283534 421.37672061 28.95505742 420.578125 32.27734375 C420.00824482 34.66575797 419.43886049 37.05429054 418.86993408 39.44293213 C417.64533656 44.5799256 416.41751386 49.71613146 415.18676758 54.85165405 C413.39633462 62.32283019 411.61213445 69.79548393 409.82970238 77.26857245 C408.99666171 80.76118562 408.16339845 84.25374566 407.33007812 87.74629211 C407.16330913 88.44524312 406.99654013 89.14419412 406.82471752 89.86432546 C405.62692215 94.8838704 404.42799804 99.90314495 403.22851562 104.92228699 C396.89125208 131.44052085 390.58145513 157.96524554 384.27908707 184.49179173 C382.18231974 193.31698438 380.08418829 202.14185199 377.98535156 210.96655273 C370.29515145 243.30436891 362.6402399 275.65033782 355 308 C327.28 308 299.56 308 271 308 C269.66332007 304.65830016 268.68083193 302.05025264 267.95411682 298.63951111 C267.7716786 297.79400066 267.58924038 296.94849022 267.40127373 296.07735825 C267.2077035 295.15842915 267.01413326 294.23950005 266.81469727 293.29272461 C266.49811755 291.81640501 266.49811755 291.81640501 266.17514229 290.31026077 C265.46813249 287.00848326 264.76737247 283.70540914 264.06640625 280.40234375 C263.56016232 278.03370317 263.05346257 275.66515997 262.54634094 273.29670715 C261.45387659 268.19102514 260.36385047 263.08482942 259.27606201 257.97814941 C256.51551257 245.01948083 253.74193719 232.06359726 250.96729374 219.1079402 C250.5092928 216.96913992 250.05147462 214.83030058 249.59368134 212.69145584 C245.0276586 191.36198721 240.40826652 170.04457886 235.74737334 148.73564649 C235.27193821 146.56178672 234.79671748 144.3878802 234.32157326 142.21395683 C231.42294954 128.95201914 228.52234156 115.69052742 225.60791034 102.43205351 C224.32962515 96.61555693 223.05645692 90.79794762 221.78499413 84.97995567 C221.26149727 82.58925591 220.73611444 80.19896826 220.20873451 77.80912209 C219.4897509 74.55051704 218.7770837 71.29059212 218.06591797 68.03027344 C217.8542376 67.07858748 217.64255724 66.12690153 217.42446232 65.14637661 C217.23491191 64.27127973 217.0453615 63.39618284 216.85006714 62.49456787 C216.68472914 61.74191525 216.51939114 60.98926262 216.34904289 60.21380234 C215.96510024 57.77864852 215.94107197 55.46129396 216 53 C214.68 53 213.36 53 212 53 C211.88490932 53.72725218 211.76981863 54.45450436 211.65124035 55.20379448 C210.46727525 62.51515894 209.05587746 69.74581547 207.47583008 76.98095703 C207.22918736 78.12145162 206.98254463 79.2619462 206.72842789 80.43700123 C205.91150703 84.21119824 205.09052782 87.98450017 204.26953125 91.7578125 C203.68387327 94.45809295 203.09908718 97.15856205 202.51426697 99.85902405 C201.10499338 106.36400544 199.69273337 112.86833479 198.2794103 119.37243742 C196.64530286 126.8931392 195.01416826 134.41448474 193.38324332 141.9358772 C191.22310741 151.89764237 189.06226753 161.85925443 186.89950562 171.82044983 C186.65114379 172.96434977 186.65114379 172.96434977 186.39776456 174.1313588 C186.06427745 175.66731615 185.73079022 177.20327346 185.39730287 178.73923075 C181.86803453 194.99442011 178.345706 211.25110279 174.82707787 227.50859833 C173.22394259 234.91491218 171.61976921 242.32100122 170.01551914 249.72707367 C168.76009225 255.52293003 167.50509507 261.31887863 166.25112915 267.11505127 C165.08644198 272.49815861 163.920145 277.88091461 162.75256538 283.26339531 C162.32860789 285.21913507 161.90522767 287.17500007 161.48246574 289.13099861 C160.91139479 291.77280793 160.33829262 294.41416836 159.76464844 297.05541992 C159.59867063 297.82560015 159.43269281 298.59578037 159.26168537 299.38929939 C158.6235108 302.3191182 157.94911684 305.15264948 157 308 C128.62 308 100.24 308 71 308 C63.34657217 276.26279741 55.81940862 244.50305769 48.46646118 212.69525146 C45.67190235 200.6067678 42.86916482 188.52017843 40.06640625 176.43359375 C39.63453412 174.57087452 39.63453412 174.57087452 39.1939373 172.6705246 C32.44408029 143.56172486 25.63374425 114.4671416 18.8125 85.375 C18.53729271 84.20124943 18.26208542 83.02749886 17.97853851 81.81818008 C16.90270987 77.22998475 15.8268446 72.64179804 14.75065613 68.0536871 C13.49824918 62.71430221 12.24639769 57.37478891 10.99615479 52.03489685 C8.14114351 39.84280872 8.14114351 39.84280872 5.25358677 27.65839958 C4.57331587 24.8041156 3.89671821 21.94896779 3.22055626 19.09370804 C2.77996981 17.24081753 2.33344874 15.38934121 1.88667297 13.53793335 C1.63233994 12.46274445 1.3780069 11.38755554 1.1159668 10.27978516 C0.89788864 9.36975739 0.67981049 8.45972961 0.4551239 7.52212524 C0 5 0 5 0 0 Z " fill="#293FFD" transform="translate(327,4)"/>
<path d="M0 0 C192.22839934 0 192.22839934 0 225.55078125 32.50244141 C243.36574702 50.91163952 248.57937754 72.71332256 248.2734375 97.671875 C247.73851979 115.52011924 240.60930408 132.25278166 228 145 C212.40329562 158.8021972 189.14741561 169 168 169 C168.33 170.65 168.66 172.3 169 174 C170.1859375 174.20753906 171.371875 174.41507813 172.59375 174.62890625 C187.53771976 177.40625529 201.57392771 181.44755094 213 192 C214.00740234 192.87205078 214.00740234 192.87205078 215.03515625 193.76171875 C234.76134095 211.8915648 240.19029516 242.85010082 247.28411865 267.57489014 C248.24898074 270.927681 249.22454484 274.27731751 250.20031738 277.62694645 C251.14221275 280.86265017 252.07973397 284.09960683 253.01568604 287.33703423 C253.46139162 288.87827706 253.90795716 290.41927148 254.35540771 291.96000862 C254.97416367 294.09464781 255.58751978 296.23076113 256.19921875 298.36743164 C256.72261841 300.18556114 256.72261841 300.18556114 257.2565918 302.04042053 C258 305 258 305 258 308 C236.22 308 214.44 308 192 308 C184.8125 277.9375 184.8125 277.9375 182.57739258 268.54272461 C181.97529389 266.0374722 181.37270486 263.53233757 180.76953125 261.02734375 C180.47123413 259.76539185 180.17293701 258.50343994 179.86560059 257.20324707 C175.34729605 238.51740789 170.07640576 218.82786816 152.8046875 207.99609375 C139.66653637 200.95674879 126.46951009 199.55001447 111.7578125 199.48828125 C110.42177811 199.4727578 109.08575803 199.45595107 107.74975586 199.43786621 C102.87499399 199.38064281 97.99996877 199.34795891 93.125 199.3125 C76.728125 199.1578125 76.728125 199.1578125 60 199 C60 234.97 60 270.94 60 308 C40.2 308 20.4 308 0 308 C0 206.36 0 104.72 0 0 Z M60 47 C60 81.98 60 116.96 60 153 C68.70375 153.020625 77.4075 153.04125 86.375 153.0625 C90.43627197 153.07615601 90.43627197 153.07615601 94.57958984 153.09008789 C118.73480009 153.49042495 118.73480009 153.49042495 142.625 150.4375 C143.78974854 150.18468262 143.78974854 150.18468262 144.97802734 149.92675781 C158.48573152 146.70736203 171.70091467 139.89700959 179.8125 128.3125 C187.50554803 114.39556241 188.66354745 96.86254577 184.3125 81.625 C182.47358002 76.64756995 180.14160647 72.26726351 177 68 C176.443125 67.154375 175.88625 66.30875 175.3125 65.4375 C160.65113149 49.98362508 138.17874648 47.59909909 118 47 C108.00081442 46.84756673 97.99988646 46.90591494 88 46.9375 C78.76 46.958125 69.52 46.97875 60 47 Z " fill="#293FFD" transform="translate(1095,4)"/>
<path d="M0 0 C1.33217148 0.00436926 1.33217148 0.00436926 2.69125551 0.00882679 C3.62724343 0.00797237 4.56323134 0.00711794 5.52758253 0.00623763 C8.68916906 0.00457996 11.85070347 0.01010886 15.01228517 0.01555592 C17.26856161 0.01583775 19.52483814 0.01568013 21.78111452 0.01511341 C27.92756146 0.0148253 34.07398908 0.02072426 40.22043151 0.02768737 C46.63598799 0.03391861 53.05154486 0.03452452 59.4671039 0.03571278 C70.24209678 0.03847249 81.01708116 0.04472803 91.79207033 0.05364186 C102.89233038 0.06281524 113.9925885 0.06989643 125.09285158 0.07414967 C126.11849047 0.07454375 126.11849047 0.07454375 127.16484935 0.0749458 C130.59493102 0.0762508 134.0250127 0.07751452 137.4550944 0.0787577 C165.9291607 0.0891312 194.40321521 0.10756997 222.87727541 0.12908131 C222.87727541 16.62908131 222.87727541 33.12908131 222.87727541 50.12908131 C166.77727541 50.12908131 110.67727541 50.12908131 52.87727541 50.12908131 C52.87727541 76.19908131 52.87727541 102.26908131 52.87727541 129.12908131 C101.71727541 129.12908131 150.55727541 129.12908131 200.87727541 129.12908131 C200.87727541 144.30908131 200.87727541 159.48908131 200.87727541 175.12908131 C152.03727541 175.12908131 103.19727541 175.12908131 52.87727541 175.12908131 C52.87727541 202.84908131 52.87727541 230.56908131 52.87727541 259.12908131 C109.30727541 259.12908131 165.73727541 259.12908131 223.87727541 259.12908131 C223.87727541 275.29908131 223.87727541 291.46908131 223.87727541 308.12908131 C147.64727541 308.12908131 71.41727541 308.12908131 -7.12272459 308.12908131 C-7.16305594 231.12757342 -7.16305594 231.12757342 -7.17155272 199.04900318 C-7.17351073 191.70582282 -7.17553126 184.36264248 -7.17765623 177.01946217 C-7.17791998 176.09905288 -7.17818373 175.17864359 -7.17845547 174.2303431 C-7.18281049 159.35088464 -7.19069744 144.47143003 -7.19987739 129.59197385 C-7.20921305 114.33341182 -7.21478002 99.07485181 -7.21681309 83.81628704 C-7.2181885 74.39308577 -7.22254006 64.96989536 -7.23064106 55.54669743 C-7.23590744 49.09394933 -7.23752914 42.64120688 -7.23622597 36.18845678 C-7.23558242 32.45980981 -7.236602 28.73118189 -7.24193007 25.00253826 C-7.24765099 20.96976052 -7.24572578 16.93702389 -7.24297911 12.90424305 C-7.24734837 11.11683062 -7.24734837 11.11683062 -7.2518059 9.29330885 C-7.24881933 7.68621862 -7.24881933 7.68621862 -7.24577242 6.04666191 C-7.24615214 5.1144485 -7.24653186 4.18223509 -7.24692309 3.22177279 C-6.98166372 -1.24773397 -3.72560493 0.00927594 0 0 Z " fill="#293FFD" transform="translate(1413.1227245926857,3.8709186911582947)"/>
<path d="M0 0 C19.47 0 38.94 0 59 0 C59 46.2 59 92.4 59 140 C72.66554021 134.1074164 72.66554021 134.1074164 85.875 127.375 C86.5971167 126.96950928 87.3192334 126.56401855 88.06323242 126.14624023 C102.39817037 117.89947621 115.67962707 108.00460495 128 97 C128.87785156 96.23171875 129.75570313 95.4634375 130.66015625 94.671875 C140.31704593 86.13440839 149.03217261 77.13463759 157 67 C157.77988281 66.03707031 158.55976562 65.07414062 159.36328125 64.08203125 C173.79211024 45.92517946 185.30273148 25.93068707 192.125 3.7109375 C193 1 193 1 194 0 C196.11681317 -0.0942174 198.23680758 -0.11742761 200.35571289 -0.11352539 C201.01910172 -0.11367142 201.68249054 -0.11381744 202.36598206 -0.1139679 C204.56823956 -0.11326881 206.77041345 -0.10547665 208.97265625 -0.09765625 C210.49580336 -0.09579206 212.01895107 -0.09436816 213.542099 -0.09336853 C217.55837651 -0.08954346 221.57461808 -0.07971328 225.59088135 -0.06866455 C229.68623366 -0.05845019 233.78159176 -0.05387086 237.87695312 -0.04882812 C245.91798528 -0.038091 253.95898817 -0.02101472 262 0 C261.54301875 1.72928939 261.08201783 3.45751678 260.61938477 5.18530273 C260.36310806 6.14782455 260.10683136 7.11034637 259.8427887 8.10203552 C258.54311048 12.57103387 256.79376772 16.80008054 254.9375 21.0625 C254.5468335 21.96371582 254.15616699 22.86493164 253.75366211 23.79345703 C245.07436498 43.41187225 233.47390066 61.35104147 220 78 C219.56526367 78.53915039 219.13052734 79.07830078 218.68261719 79.63378906 C206.94948255 94.05558979 193.80144981 107.71791665 179 119 C177.72802276 120.01028021 176.4572885 121.02212646 175.1875 122.03515625 C163.99850839 130.87855427 152.3019697 138.81984357 139.56640625 145.28515625 C138.8698291 145.64053467 138.17325195 145.99591309 137.45556641 146.36206055 C136.14782205 147.01846405 134.83134412 147.65785743 133.50537109 148.27661133 C131.52282298 149.21059676 131.52282298 149.21059676 129 151 C127.99904142 153.60838791 127.99904142 153.60838791 128 156 C128.80179688 155.96519531 129.60359375 155.93039063 130.4296875 155.89453125 C157.47395493 155.25062012 184.95162725 163.40624104 205 182 C206.25683594 183.13695312 206.25683594 183.13695312 207.5390625 184.296875 C231.71955304 207.20470815 242.30830499 240.40571697 253.23620605 270.92053223 C254.18235652 273.55740169 255.1350457 276.19188809 256.08786678 278.82635307 C257.23721452 282.00560508 258.38229578 285.18638417 259.52734375 288.3671875 C260.15853371 290.11719559 260.15853371 290.11719559 260.80247498 291.90255737 C261.19371048 292.99545074 261.58494598 294.08834412 261.98803711 295.21435547 C262.50025063 296.64157425 262.50025063 296.64157425 263.02281189 298.09762573 C264.12262033 301.36419814 265.05310542 304.68586896 266 308 C243.56 308 221.12 308 198 308 C191 283.75 191 283.75 188.84765625 276.23339844 C180.65381896 247.93736551 170.64490445 215.34898026 143.3359375 199.87109375 C117.03432789 185.67302318 88.83095369 187.7102608 59 187 C59 226.93 59 266.86 59 308 C39.53 308 20.06 308 0 308 C0 206.36 0 104.72 0 0 Z " fill="#293FFD" transform="translate(1690,4)"/>
<path d="M0 0 C1.20085236 0.00539291 1.20085236 0.00539291 2.42596436 0.01089478 C3.26491745 0.01074875 4.10387054 0.01060272 4.96824646 0.01045227 C7.75487816 0.01115167 10.54144388 0.01894531 13.32806396 0.02676392 C15.25477563 0.028628 17.18148777 0.03005195 19.10820007 0.03105164 C24.18978169 0.03487758 29.27133491 0.04470851 34.35290527 0.05575562 C39.53407405 0.0659681 44.7152474 0.07054891 49.89642334 0.07559204 C60.07026397 0.08633071 70.24408348 0.10340804 80.41790771 0.12442017 C83.2553182 6.23427832 85.65165768 12.38449224 87.78118896 18.77285767 C88.24340851 20.14086014 88.24340851 20.14086014 88.71496582 21.53649902 C89.37732844 23.49770464 90.03787012 25.45952604 90.69674683 27.42190552 C92.48473974 32.74529005 94.28775146 38.06358717 96.08978271 43.38223267 C96.64019981 45.00808289 96.64019981 45.00808289 97.20173645 46.66677856 C100.5660452 56.59123525 104.01201276 66.48595857 107.48040771 76.37442017 C114.04207072 95.096252 120.4865797 113.85754209 126.91790771 132.62442017 C133.2063763 150.97356613 139.50378132 169.31870923 145.91790771 187.62442017 C153.41770974 209.03035743 160.77010863 230.48671747 168.12493896 251.94277954 C168.35926825 252.62625835 168.59359753 253.30973717 168.83502769 254.01392746 C169.99506112 257.39763025 171.15440643 260.78156565 172.31234741 264.16598511 C174.63592406 270.95359795 176.97571088 277.73509792 179.34124756 284.50820923 C180.04187273 286.51962538 180.74217629 288.53115323 181.44238853 290.54271317 C182.1021451 292.43305782 182.76690425 294.32165415 183.43177795 296.21020508 C184.02178841 297.90531723 184.02178841 297.90531723 184.62371826 299.63467407 C184.97145798 300.62625519 185.31919769 301.6178363 185.67747498 302.63946533 C186.41790771 305.12442017 186.41790771 305.12442017 186.41790771 308.12442017 C164.96790771 308.12442017 143.51790771 308.12442017 121.41790771 308.12442017 C118.28290771 298.28629517 115.14790771 288.44817017 111.91790771 278.31192017 C110.92597412 275.2068103 109.93404053 272.10170044 108.91204834 268.90249634 C108.13240886 266.44923605 107.35308984 263.99587389 106.57415771 261.54238892 C106.36980103 260.90489212 106.16544434 260.26739532 105.95489502 259.61058044 C105.3532562 257.73260741 104.75753741 255.85274095 104.16204834 253.97280884 C103.82451538 252.91357712 103.48698242 251.8543454 103.13922119 250.76301575 C102.41790771 248.12442017 102.41790771 248.12442017 102.41790771 245.12442017 C59.51790771 245.12442017 16.61790771 245.12442017 -27.58209229 245.12442017 C-28.57209229 249.08442017 -29.56209229 253.04442017 -30.58209229 257.12442017 C-31.15477625 259.11060013 -31.74593554 261.09182561 -32.37554932 263.06069946 C-32.69242706 264.057603 -33.00930481 265.05450653 -33.33578491 266.08161926 C-33.66714447 267.11023575 -33.99850403 268.13885223 -34.33990479 269.19863892 C-34.68842499 270.28909012 -35.03694519 271.37954132 -35.39602661 272.5030365 C-36.12530785 274.78163907 -36.85645683 277.05964466 -37.5894165 279.33706665 C-38.71592889 282.83939316 -39.83493643 286.34405717 -40.95318604 289.84902954 C-41.66498478 292.06987401 -42.37720868 294.29058226 -43.08990479 296.51113892 C-43.42531281 297.56202194 -43.76072083 298.61290497 -44.10629272 299.69563293 C-44.41686615 300.6578627 -44.72743958 301.62009247 -45.04742432 302.61148071 C-45.32039337 303.46131027 -45.59336243 304.31113983 -45.87460327 305.1867218 C-46.58209229 307.12442017 -46.58209229 307.12442017 -47.58209229 308.12442017 C-49.57640958 308.21847158 -51.57408771 308.24185266 -53.57061768 308.23794556 C-54.85187027 308.23787003 -56.13312286 308.23779449 -57.45320129 308.23771667 C-58.86205076 308.23260926 -60.27089984 308.22739325 -61.67974854 308.22207642 C-63.11321463 308.22021219 -64.54668136 308.21878831 -65.98014832 308.2177887 C-69.75969185 308.21396389 -73.53919718 308.20413393 -77.31872559 308.19308472 C-81.17278527 308.18286979 -85.0268511 308.1782909 -88.88092041 308.17324829 C-96.44799515 308.16251162 -104.01503837 308.14543566 -111.58209229 308.12442017 C-110.26482388 301.72373882 -108.54708736 295.6484155 -106.41412354 289.47598267 C-106.10314728 288.56398102 -105.79217102 287.65197937 -105.47177124 286.71234131 C-104.45087838 283.72302219 -103.42289295 280.73619836 -102.39459229 277.74942017 C-101.6665318 275.62353855 -100.9387533 273.49756033 -100.21124268 271.37149048 C-95.40371172 257.34086004 -90.53296104 243.33249363 -85.63009644 229.33493042 C-79.36898981 211.45825801 -73.22266821 193.54273732 -67.08209229 175.62442017 C-60.49194671 156.39532819 -53.88350756 137.17369866 -47.16226196 117.9899292 C-41.6618063 102.28559997 -36.25297082 86.55029178 -30.85272217 70.81130981 C-17.43132547 31.69569046 -17.43132547 31.69569046 -11.26959229 14.18692017 C-10.90192245 13.1378096 -10.90192245 13.1378096 -10.52682495 12.06750488 C-9.86482319 10.18041384 -9.1982418 8.2949311 -8.53131104 6.40957642 C-8.17383789 5.39774292 -7.81636475 4.38590942 -7.44805908 3.34341431 C-5.86517846 -0.7126336 -4.13088429 0.00783261 0 0 Z M34.41790771 48.12442017 C22.69386217 85.01807569 10.9799135 121.91486075 -0.65393066 158.83708191 C-2.48001498 164.63206687 -4.30979233 170.42585204 -6.14523315 176.21788025 C-7.11851853 179.2914781 -8.08850227 182.36610911 -9.05737305 185.44110107 C-9.48365538 186.7915691 -9.91138214 188.14158222 -10.34069824 189.49108887 C-10.90683613 191.27127547 -11.46731975 193.05325745 -12.02740479 194.83535767 C-12.48397461 196.2785437 -12.48397461 196.2785437 -12.94976807 197.75088501 C-13.71080607 200.19818246 -13.71080607 200.19818246 -13.58209229 203.12442017 C20.07790771 203.12442017 53.73790771 203.12442017 88.41790771 203.12442017 C86.76045869 195.61768026 86.76045869 195.61768026 84.68817139 188.29092407 C84.35491852 187.22407883 84.02166565 186.15723358 83.67831421 185.05805969 C83.31780975 183.91722427 82.9573053 182.77638885 82.58587646 181.60098267 C82.20152435 180.37414261 81.81717224 179.14730255 81.4211731 177.88328552 C80.37221271 174.5352296 79.31870705 171.18862006 78.26433182 167.84226608 C77.15332096 164.31352199 76.04641336 160.78349132 74.93914795 157.25357056 C73.30791486 152.05451029 71.67526695 146.85589784 70.04104328 141.65777683 C67.12550932 132.38357672 64.22003961 123.10625846 61.31931877 113.82741547 C59.8963814 109.27608866 58.47252842 104.7250482 57.04873753 100.17398834 C55.90870239 96.52985237 54.76895416 92.88562731 53.62991333 89.24118042 C52.55473423 85.80142252 51.47810332 82.36212196 50.40047073 78.92313194 C49.82447783 77.08385116 49.24986576 75.24413812 48.67532349 73.40440369 C46.02218679 64.94352219 43.24510143 56.52833394 40.41790771 48.12442017 C38.43790771 48.12442017 36.45790771 48.12442017 34.41790771 48.12442017 Z " fill="#293FFD" transform="translate(863.5820922851563,3.875579833984375)"/>
<path d="M0 0 C19.8 0 39.6 0 60 0 C60.06790125 27.91333264 60.1230887 55.82659769 60.15543652 83.73999214 C60.17085999 96.70266822 60.19186242 109.66528907 60.22631836 122.62792969 C60.25635981 133.93525415 60.27560779 145.24253858 60.28226548 156.54990184 C60.28615291 162.52879285 60.29519311 168.50756942 60.31719017 174.48642349 C60.33778908 180.13183021 60.3437873 185.77707705 60.33932304 191.42251778 C60.34013791 193.47735912 60.3459624 195.53220669 60.35761642 197.58701515 C60.54064873 231.57066051 54.7215399 265.86399641 30 291 C11.06916598 308.14148122 -14.32675984 313.4300646 -39.21313477 313.20581055 C-41.3277581 313.18736692 -43.44194449 313.18530311 -45.55664062 313.18554688 C-52.12802786 313.16204122 -58.48924991 312.89972113 -65 312 C-65.71556996 304.97113576 -66.42724853 297.94188531 -67.13623047 290.91235352 C-67.37784806 288.52131234 -67.62035445 286.13036081 -67.86376953 283.73950195 C-68.21360557 280.3018274 -68.56023812 276.86384256 -68.90625 273.42578125 C-69.0156189 272.35789871 -69.12498779 271.29001617 -69.2376709 270.18977356 C-69.33777466 269.18911362 -69.43787842 268.18845367 -69.54101562 267.1574707 C-69.62984009 266.28032913 -69.71866455 265.40318756 -69.81018066 264.49946594 C-70.00082128 261.98918568 -70.03314957 259.51645824 -70 257 C-69.20005615 257.01571045 -68.4001123 257.0314209 -67.57592773 257.04760742 C-39.03120445 258.4842701 -39.03120445 258.4842701 -13.7890625 247.1328125 C0.33667526 232.79702659 -0.70013542 211.55922512 -0.68115234 192.87963867 C-0.67183917 190.76936973 -0.66166846 188.65910443 -0.65071106 186.54884338 C-0.62355359 180.85558759 -0.60830416 175.16235634 -0.59528303 169.46905303 C-0.57958976 163.50597701 -0.55281946 157.54295066 -0.5272522 151.57991028 C-0.48057371 140.303918 -0.44377685 129.02791627 -0.41057932 117.75187713 C-0.37228048 104.90777469 -0.32289077 92.06372226 -0.27259517 79.21966207 C-0.16943794 52.81314048 -0.08158885 26.40659765 0 0 Z " fill="#293FFD" transform="translate(88,4)"/>
<path d="M0 0 C19.8 0 39.6 0 60 0 C60 101.64 60 203.28 60 308 C39.87 308 19.74 308 -1 308 C-1.02202573 268.90703565 -1.04049745 229.81407713 -1.05106533 190.72110835 C-1.05231611 186.11086584 -1.05361042 181.50062335 -1.05493164 176.89038086 C-1.05519395 175.97252443 -1.05545626 175.05466801 -1.05572652 174.10899775 C-1.06008354 159.22696064 -1.06797126 144.34492737 -1.0771528 129.46289254 C-1.08648846 114.20433051 -1.09205542 98.9457705 -1.09408849 83.68720573 C-1.0954639 74.26400446 -1.09981546 64.84081405 -1.10791647 55.41761612 C-1.11318285 48.96486802 -1.11480454 42.51212557 -1.11350138 36.05937547 C-1.11285783 32.3307285 -1.11387741 28.60210058 -1.11920547 24.87345695 C-1.1249264 20.84067921 -1.12300118 16.80794258 -1.12025452 12.77516174 C-1.12462378 10.98774932 -1.12462378 10.98774932 -1.12908131 9.16422755 C-1.12609474 7.55713731 -1.12609474 7.55713731 -1.12304783 5.9175806 C-1.12342755 4.98536719 -1.12380727 4.05315378 -1.1241985 3.09269148 C-1 1 -1 1 0 0 Z " fill="#283FFC" transform="translate(219,4)"/>
<path d="M0 0 C28.05 0 56.1 0 85 0 C85 19.47 85 38.94 85 59 C56.95 59 28.9 59 0 59 C0 39.53 0 20.06 0 0 Z " fill="#2941FE" transform="translate(1897,469)"/>
</svg>
